<svg version="1.1" id="Layer_1" xmlns="http://www.w3.org/2000/svg" x="0" y="0" viewBox="0 0 256 256" style="enable-background:new 0 0 256 256" xml:space="preserve"><style>.st0{fill:#3a312a}.st2{fill:#87796f}.st14{fill:#f7e3c7}.st18{fill:#d5dc57}</style><circle transform="rotate(-80.781 133.395 217.73)" class="st2" cx="133.392" cy="217.732" r="21.759"/><path class="st0" d="M133.392 194.474c-12.825 0-23.259 10.434-23.259 23.258 0 12.825 10.434 23.259 23.259 23.259s23.259-10.434 23.259-23.259c-.001-12.825-10.435-23.258-23.259-23.258zm0 43.516c-11.171 0-20.259-9.088-20.259-20.259 0-11.17 9.088-20.258 20.259-20.258s20.259 9.088 20.259 20.258c-.001 11.171-9.088 20.259-20.259 20.259z"/><circle transform="rotate(-5.653 133.447 217.815)" class="st14" cx="133.392" cy="217.732" r="8.901"/><path class="st0" d="M133.392 207.331c-5.735 0-10.401 4.666-10.401 10.4 0 5.736 4.666 10.402 10.401 10.402 5.735 0 10.401-4.666 10.401-10.402 0-5.734-4.666-10.4-10.401-10.4zm0 17.803c-4.081 0-7.401-3.32-7.401-7.402 0-4.081 3.32-7.4 7.401-7.4s7.401 3.319 7.401 7.4-3.32 7.402-7.401 7.402z"/><circle transform="rotate(-84.347 188.608 217.74)" class="st2" cx="188.608" cy="217.732" r="21.759"/><path class="st0" d="M188.608 194.474c-12.825 0-23.259 10.434-23.259 23.258 0 12.825 10.434 23.259 23.259 23.259s23.259-10.434 23.259-23.259c0-12.825-10.434-23.258-23.259-23.258zm0 43.516c-11.171 0-20.259-9.088-20.259-20.259 0-11.17 9.088-20.258 20.259-20.258s20.259 9.088 20.259 20.258c0 11.171-9.088 20.259-20.259 20.259z"/><circle class="st14" cx="188.608" cy="217.732" r="8.901"/><path class="st0" d="M188.608 207.331c-5.735 0-10.401 4.666-10.401 10.4 0 5.736 4.666 10.402 10.401 10.402s10.401-4.666 10.401-10.402c.001-5.734-4.665-10.4-10.401-10.4zm0 17.803c-4.081 0-7.401-3.32-7.401-7.402 0-4.081 3.32-7.4 7.401-7.4s7.401 3.319 7.401 7.4c.001 4.081-3.319 7.402-7.401 7.402z"/><path d="M235.986 66.973H77.896l25.01 98.95h105.33a6.744 6.744 0 0 0 6.414-4.661l27.75-85.463c1.414-4.357-1.833-8.826-6.414-8.826z" style="fill:#8ac3da"/><path class="st0" d="M242.655 68.871a8.16 8.16 0 0 0-6.669-3.397H77.896a1.502 1.502 0 0 0-1.455 1.867l25.01 98.95a1.5 1.5 0 0 0 1.454 1.133h58.657a1.5 1.5 0 1 0 0-3h-57.489l-24.252-95.95h156.164c1.698 0 3.244.788 4.242 2.161a5.186 5.186 0 0 1 .745 4.701l-27.75 85.464a5.23 5.23 0 0 1-4.987 3.624h-31.768a1.5 1.5 0 1 0 0 3h31.768a8.222 8.222 0 0 0 7.84-5.698l27.751-85.464a8.156 8.156 0 0 0-1.171-7.391z"/><path class="st2" d="M219.014 181.471H106.831L66.521 21.984a7.252 7.252 0 0 0-7.03-5.475H20.517a7.251 7.251 0 0 0 0 14.502h33.328l5.531 21.885 3.836 15.176 30.943 122.427a7.25 7.25 0 0 0 7.03 5.475h117.83a7.251 7.251 0 1 0-.001-14.503z"/><path class="st0" d="M219.015 179.972H107.999L67.975 21.617a8.741 8.741 0 0 0-8.484-6.607H20.517c-4.825 0-8.751 3.926-8.751 8.751s3.926 8.751 8.751 8.751h32.16l5.245 20.752a1.5 1.5 0 1 0 2.908-.734l-5.531-21.885a1.5 1.5 0 0 0-1.454-1.133H20.517c-3.171 0-5.751-2.58-5.751-5.751s2.58-5.751 5.751-5.751h38.975a5.745 5.745 0 0 1 5.576 4.342l40.31 159.487a1.5 1.5 0 0 0 1.454 1.133h112.183c3.171 0 5.751 2.58 5.751 5.751s-2.58 5.751-5.751 5.751h-117.83a5.744 5.744 0 0 1-5.575-4.342L64.666 67.704a1.5 1.5 0 1 0-2.908.734l30.943 122.428a8.74 8.74 0 0 0 8.483 6.607h117.83c4.825 0 8.751-3.926 8.751-8.751s-3.925-8.75-8.75-8.75z"/><path d="M240.226 70.633c-1-1.37-2.54-2.16-4.24-2.16h-15c1.7 0 3.24.79 4.24 2.16s1.27 3.09.75 4.7l-27.75 85.47a5.245 5.245 0 0 1-4.99 3.62h15c2.28 0 4.28-1.46 4.99-3.62l27.75-85.47c.52-1.61.25-3.33-.75-4.7z" style="fill:#6da3bc"/><path d="M219.016 182.973h-15c3.17 0 5.75 2.58 5.75 5.75s-2.58 5.75-5.75 5.75h15c3.17 0 5.75-2.58 5.75-5.75s-2.58-5.75-5.75-5.75z" style="fill:#6a5c52"/><path class="st18" d="M50.246 93.193c-.974 11.564-13.025 13.39-13.025 13.39 10.347.487 12.925 14.059 12.925 14.059.221-9.677 13.321-14.202 13.321-14.202-9.813-.588-13.221-13.247-13.221-13.247z"/><path class="st0" d="M63.557 104.942c-8.604-.515-11.831-12.024-11.863-12.141a1.5 1.5 0 0 0-2.943.265c-.86 10.215-11.313 11.964-11.754 12.032a1.5 1.5 0 0 0 .155 2.982c9.028.425 11.499 12.718 11.522 12.843a1.5 1.5 0 0 0 2.973-.248c.194-8.509 12.191-12.777 12.313-12.819a1.5 1.5 0 0 0-.403-2.914zm-13.566 10.346c-1.357-3.131-3.708-6.907-7.587-8.877 2.931-1.404 6.409-3.912 8.202-8.272 1.551 3.071 4.2 6.88 8.334 8.723-3.007 1.639-6.922 4.405-8.949 8.426z"/><path class="st18" d="M28.547 110.174c-.689 8.179-9.213 9.47-9.213 9.47 7.318.344 9.142 9.944 9.142 9.944.156-6.844 9.422-10.045 9.422-10.045-6.94-.415-9.351-9.369-9.351-9.369z"/><path class="st0" d="M37.988 118.046c-5.766-.345-7.972-8.186-7.994-8.265a1.5 1.5 0 0 0-2.942.266c-.579 6.87-7.647 8.066-7.942 8.113a1.5 1.5 0 0 0 .154 2.982c6.035.284 7.723 8.645 7.739 8.727a1.5 1.5 0 0 0 2.973-.246c.13-5.709 8.332-8.634 8.413-8.662a1.499 1.499 0 0 0-.401-2.915zm-9.584 6.795c-.924-1.886-2.34-3.947-4.447-5.28 1.856-1.041 3.697-2.63 4.871-4.916 1.057 1.874 2.654 3.955 4.942 5.224-1.851 1.1-3.99 2.739-5.366 4.972z"/><path class="st18" d="M28.547 83.516c-.689 8.179-9.213 9.471-9.213 9.471 7.318.344 9.142 9.944 9.142 9.944.156-6.845 9.422-10.045 9.422-10.045-6.94-.416-9.351-9.37-9.351-9.37z"/><path class="st0" d="M37.989 91.389c-5.767-.346-7.973-8.187-7.994-8.266a1.5 1.5 0 0 0-2.942.266c-.579 6.871-7.646 8.066-7.942 8.113a1.5 1.5 0 0 0 .153 2.982c6.036.284 7.724 8.645 7.739 8.727a1.5 1.5 0 0 0 2.973-.246c.13-5.708 8.332-8.633 8.413-8.661a1.5 1.5 0 0 0-.4-2.915zm-9.585 6.794c-.924-1.885-2.34-3.947-4.447-5.279 1.856-1.041 3.697-2.63 4.871-4.917 1.057 1.874 2.654 3.955 4.942 5.225-1.851 1.1-3.99 2.739-5.366 4.971z"/><ellipse transform="rotate(-86.83 64.098 194.72)" cx="64.1" cy="194.725" rx="44.766" ry="44.765" style="fill:#ef6d7a"/><path class="st0" d="M64.1 148.46c-25.511 0-46.266 20.755-46.266 46.266S38.589 240.99 64.1 240.99s46.265-20.754 46.265-46.265S89.611 148.46 64.1 148.46zm0 89.53c-23.857 0-43.266-19.408-43.266-43.265S40.243 151.46 64.1 151.46c23.856 0 43.265 19.409 43.265 43.266S87.956 237.99 64.1 237.99z"/><path class="st2" d="m71.875 195.439 14.043-14.042a5.467 5.467 0 0 0 0-7.733 5.467 5.467 0 0 0-7.733 0l-14.043 14.043L50.1 173.664a5.467 5.467 0 0 0-7.733 0 5.467 5.467 0 0 0 0 7.733l14.043 14.042-14.043 14.043a5.466 5.466 0 0 0 0 7.732 5.449 5.449 0 0 0 3.866 1.602 5.449 5.449 0 0 0 3.866-1.602l14.043-14.042 14.043 14.042a5.449 5.449 0 0 0 3.866 1.602 5.449 5.449 0 0 0 3.866-1.602 5.466 5.466 0 0 0 0-7.732l-14.042-14.043z"/><path class="st0" d="m73.996 195.439 12.982-12.982c1.316-1.315 2.042-3.065 2.042-4.927s-.725-3.611-2.041-4.927a6.92 6.92 0 0 0-4.927-2.041 6.92 6.92 0 0 0-4.927 2.041l-12.982 12.982-12.982-12.982c-1.315-1.316-3.065-2.041-4.927-2.041s-3.612.725-4.927 2.041c-1.317 1.315-2.042 3.065-2.042 4.927s.725 3.611 2.042 4.927l12.982 12.982-12.982 12.982c-1.317 1.315-2.042 3.065-2.042 4.927s.725 3.611 2.041 4.927a6.924 6.924 0 0 0 4.928 2.042 6.92 6.92 0 0 0 4.927-2.042l12.982-12.982 12.981 12.981a6.921 6.921 0 0 0 4.928 2.043 6.92 6.92 0 0 0 4.927-2.042c1.316-1.315 2.042-3.065 2.042-4.927s-.725-3.611-2.042-4.927l-12.983-12.982zm10.861 20.715c-1.498 1.5-4.112 1.5-5.611 0l-14.043-14.043a1.5 1.5 0 0 0-2.121 0l-14.044 14.044c-1.497 1.498-4.112 1.499-5.611-.001-.75-.749-1.163-1.746-1.163-2.806s.413-2.057 1.163-2.806L57.47 196.5a1.5 1.5 0 0 0 0-2.121l-14.043-14.043c-.75-.749-1.163-1.746-1.163-2.806s.413-2.057 1.163-2.806c1.498-1.499 4.113-1.501 5.611 0l14.043 14.043c.563.563 1.559.563 2.121 0l14.043-14.043c1.498-1.499 4.112-1.501 5.611 0 .749.749 1.163 1.746 1.163 2.806s-.413 2.057-1.163 2.806l-14.043 14.043a1.5 1.5 0 0 0 0 2.121l14.043 14.043c.749.749 1.163 1.746 1.163 2.806s-.412 2.056-1.162 2.805z"/></svg>