<svg version="1.1" id="Layer_1" xmlns="http://www.w3.org/2000/svg" xmlns:xlink="http://www.w3.org/1999/xlink" x="0px" y="0px"
	 width="100%" viewBox="0 0 326 65" enable-background="new 0 0 326 65" xml:space="preserve">
<path fill="#FCFCFC" opacity="1.000000" stroke="none" 
	d="
M327.000000,41.000000 
	C327.000000,42.066669 327.000000,43.133339 326.781067,44.633766 
	C326.272217,45.178028 326.057861,45.372009 325.457275,45.682690 
	C314.852051,45.724365 304.708130,45.676693 294.565277,45.757347 
	C284.782715,45.835133 274.964142,45.376698 265.209290,46.018486 
	C265.232483,46.678989 265.255646,47.339497 265.278839,48.000000 
	C285.852570,48.000000 306.426270,48.000000 327.000000,48.000000 
	C327.000000,53.996517 327.000000,59.993031 327.000000,65.992157 
	C218.399918,65.994774 109.799820,65.994774 1.099865,65.994774 
	C1.099865,44.412899 1.099865,22.825184 1.099865,1.118735 
	C109.666573,1.118735 218.333267,1.118735 327.000000,1.118735 
	C327.000000,7.402613 327.000000,13.732264 326.531342,20.530159 
	C321.921661,20.999186 317.779236,20.931648 313.639893,21.015394 
	C305.731903,21.175386 297.825684,21.421539 289.457306,21.655853 
	C283.357269,21.641830 277.718658,21.603888 271.816650,21.392366 
	C270.342865,21.345037 269.132477,21.471291 267.553955,21.615162 
	C266.799408,22.464344 266.413025,23.295906 266.112061,24.274033 
	C266.458588,24.331701 266.719757,24.242804 267.318115,24.080196 
	C268.111633,24.047815 268.567932,24.089144 269.245850,24.364586 
	C270.639191,24.436661 271.810852,24.274620 273.442474,24.041782 
	C277.941559,24.018480 281.980682,24.065977 286.331635,24.384121 
	C300.095642,24.769844 313.547821,24.884922 327.000000,25.000000 
	C327.000000,25.750000 327.000000,26.500000 326.792542,27.715170 
	C326.323608,28.349922 326.132599,28.578426 325.546722,28.931534 
	C305.114838,28.997213 285.148315,28.997213 265.181793,28.997213 
	C265.140472,29.518053 265.099121,30.038893 265.057800,30.559732 
	C265.728638,30.874304 266.399475,31.188875 267.373444,31.671839 
	C268.857208,31.766684 270.037811,31.693136 271.636597,31.665127 
	C274.303497,31.696968 276.552185,31.683270 279.213806,31.789532 
	C282.182739,31.770422 284.738831,31.631353 287.742065,31.465960 
	C301.126190,31.293093 314.063080,31.146547 327.000000,31.000000 
	C327.000000,33.041668 327.000000,35.083332 326.542145,37.450531 
	C309.698486,37.760197 293.312714,37.744339 276.627808,37.487251 
	C273.251801,37.391758 270.174927,37.537483 266.763092,37.703804 
	C266.285889,38.486656 266.143646,39.248913 266.304840,40.295097 
	C268.419830,40.709473 270.231201,40.949684 272.042999,40.953415 
	C290.361938,40.991108 308.681000,40.990128 327.000000,41.000000 
M125.341362,23.505003 
	C125.413795,26.018356 125.486229,28.531712 125.729790,31.716688 
	C125.796677,31.937822 125.863556,32.158958 125.932205,32.924358 
	C125.956642,33.286358 125.981079,33.648354 125.828094,34.895287 
	C126.079849,38.686035 124.279572,42.878960 128.023895,46.738094 
	C128.841217,47.389450 130.177917,48.737602 130.391220,48.578613 
	C131.733566,47.578056 132.826187,46.242500 134.737579,45.019905 
	C136.296829,46.606712 137.856094,48.193520 139.322327,49.685661 
	C139.630188,47.836197 139.492599,45.888786 140.064651,45.651398 
	C146.444107,43.004044 143.330383,38.142555 143.035416,33.464367 
	C143.065369,33.148972 143.068268,32.833324 143.383179,31.591496 
	C143.435471,30.595015 143.314011,29.551504 143.568878,28.609848 
	C144.996140,23.336334 140.575790,21.692337 137.745743,19.055378 
	C137.625443,18.943285 137.512070,18.823746 137.395477,18.707674 
	C137.438400,18.745567 137.524155,18.806505 137.517990,18.817989 
	C137.362823,19.106419 137.255875,19.454264 137.024155,19.661844 
	C136.288757,20.320612 135.491898,21.481649 134.744202,21.462387 
	C130.167374,21.344471 131.492050,17.738997 131.109650,14.538520 
	C130.357361,16.726887 129.764542,18.451391 129.171707,20.175898 
	C129.482513,20.260473 129.793320,20.345049 130.104126,20.429625 
	C128.708435,21.284395 127.312744,22.139164 125.341362,23.505003 
M107.275108,44.100681 
	C108.888870,42.587452 111.055389,41.353889 111.993851,39.499001 
	C113.622520,36.279919 114.403847,32.643074 115.700439,29.242395 
	C117.510437,24.495150 116.053421,22.115591 110.823372,21.860283 
	C107.340355,21.690258 103.844086,21.756680 100.353996,21.772419 
	C83.498825,21.848436 84.862900,20.363401 79.608147,36.557564 
	C79.506226,36.871658 79.318565,37.158981 79.226135,37.474949 
	C77.916458,41.952003 79.358398,44.370975 84.055313,44.480785 
	C91.521767,44.655346 98.998657,44.383675 107.275108,44.100681 
M217.172668,44.617325 
	C218.192902,44.411148 219.213120,44.204971 220.209976,44.003521 
	C219.236893,40.926315 218.400162,38.280327 217.546539,35.580891 
	C219.125168,34.922932 220.916290,34.753212 221.394150,33.871639 
	C222.975662,30.954023 224.388138,27.841831 225.042450,24.636307 
	C225.139862,24.159088 220.847427,22.056749 218.528168,21.949097 
	C210.925827,21.596222 203.296906,21.816549 195.764145,21.816549 
	C193.117630,29.420614 190.551453,36.793850 187.838211,44.589668 
	C190.202408,44.589668 192.159683,44.589672 194.116959,44.589672 
	C196.223129,44.589672 198.329315,44.589668 200.180771,44.589668 
	C201.088593,41.794159 201.635620,39.532001 202.579666,37.449852 
	C203.041260,36.431789 204.241699,35.748714 205.107697,34.914024 
	C205.777939,35.878380 206.955963,36.803051 207.034927,37.813606 
	C207.502289,43.793869 210.774536,45.670235 217.172668,44.617325 
M157.555756,23.790668 
	C155.712250,28.328346 153.762909,32.826626 152.054825,37.414719 
	C150.328293,42.052387 151.788162,44.295536 156.827271,44.527061 
	C161.811172,44.756058 166.812927,44.586758 171.806747,44.611477 
	C182.950043,44.666637 183.244904,44.444874 186.690338,33.562916 
	C187.190079,31.984520 187.830933,30.451206 188.347916,28.877785 
	C189.788223,24.494291 188.329834,22.036524 183.761230,21.915569 
	C176.609589,21.726231 169.447189,21.818586 162.292892,21.965029 
	C160.910538,21.993324 159.544479,22.817415 157.555756,23.790668 
M243.332092,29.036133 
	C242.728622,28.673256 241.559753,28.109249 241.606537,27.977680 
	C242.305878,26.011715 243.165695,24.102844 244.102783,21.911396 
	C239.660156,21.911396 235.698654,21.911396 231.745453,21.911396 
	C229.131943,29.471413 226.569855,36.882660 223.974884,44.389008 
	C228.312103,44.389008 232.429886,44.389008 235.788345,44.389008 
	C237.481384,41.178902 238.916992,38.456890 240.739975,35.000389 
	C246.488174,45.696369 247.022079,45.951782 257.528748,43.987812 
	C255.447418,39.181927 253.366348,34.376637 251.161697,29.285936 
	C254.830276,26.932262 258.272369,24.723894 261.714478,22.515528 
	C261.422882,21.921114 261.131287,21.326702 260.839691,20.732288 
	C257.508362,22.032585 254.099716,23.168541 250.871246,24.687504 
	C248.479950,25.812580 246.322998,27.435728 243.332092,29.036133 
M12.280201,37.745193 
	C10.214749,39.780289 8.149297,41.815384 6.083845,43.850479 
	C8.800340,44.509239 12.160761,44.834511 12.886597,43.604763 
	C16.165262,38.049889 21.147837,38.610352 26.327814,38.432625 
	C30.776279,38.279991 33.895363,38.887917 33.255733,44.362030 
	C37.660297,44.362030 41.703812,44.362030 45.787392,44.362030 
	C44.432579,39.362755 43.163433,34.616695 41.859035,29.880342 
	C39.612530,21.723124 39.602699,21.675589 31.056946,21.781870 
	C29.027147,21.807114 26.225882,21.541367 25.113237,22.695398 
	C20.710915,27.261486 16.838343,32.338326 12.280201,37.745193 
M62.975224,44.599491 
	C64.136452,43.774151 65.878967,43.194550 66.351036,42.077869 
	C67.828979,38.581829 69.181580,34.954037 69.923904,31.245419 
	C70.884262,26.447506 73.205215,24.411646 78.172394,25.136936 
	C79.243271,25.293301 80.538651,23.912165 81.730614,23.239246 
	C81.495323,22.748083 81.260040,22.256922 81.024750,21.765759 
	C73.554001,21.765759 66.083252,21.765415 58.612507,21.766239 
	C57.779770,21.766331 56.840115,21.526037 56.137436,21.830173 
	C54.834484,22.394119 53.669994,23.277969 52.447845,24.028603 
	C52.660423,24.397873 52.873001,24.767143 53.085579,25.136414 
	C55.198250,25.231953 57.310917,25.327490 59.932365,25.446037 
	C58.866287,28.755209 57.824501,31.666803 56.999332,34.638546 
	C56.127239,37.779255 55.461514,40.977264 54.598598,44.599583 
	C57.492466,44.599583 59.804573,44.599583 62.975224,44.599491 
z"/>
<path fill="#736566" opacity="1.000000" stroke="none" 
	d="
M327.000000,47.666668 
	C306.426270,48.000000 285.852570,48.000000 265.278839,48.000000 
	C265.255646,47.339497 265.232483,46.678989 265.209290,46.018486 
	C274.964142,45.376698 284.782715,45.835133 294.565277,45.757347 
	C304.708130,45.676693 314.852051,45.724365 325.714325,45.811646 
	C326.622101,45.938251 326.811066,45.969128 327.000000,46.000000 
	C327.000000,46.444447 327.000000,46.888889 327.000000,47.666668 
z"/>
<path fill="#62848B" opacity="1.000000" stroke="none" 
	d="
M272.080048,21.565947 
	C277.718658,21.603888 283.357269,21.641830 289.919800,21.769411 
	C302.895782,21.906033 314.947906,21.953016 327.000000,22.000000 
	C327.000000,22.444445 327.000000,22.888889 326.532227,23.634583 
	C312.716248,23.995047 299.368042,24.054260 286.019806,24.113474 
	C281.980682,24.065977 277.941559,24.018480 273.050873,23.963615 
	C271.140930,24.014322 270.082581,24.072399 269.024200,24.130474 
	C268.567932,24.089144 268.111633,24.047815 267.080811,24.028873 
	C266.506287,24.051260 266.026672,24.127470 266.026672,24.127468 
	C266.413025,23.295906 266.799408,22.464344 267.962463,21.724493 
	C269.852783,21.732786 270.966431,21.649366 272.080048,21.565947 
z"/>
<path fill="#7AA18A" opacity="1.000000" stroke="none" 
	d="
M327.000000,30.666668 
	C314.063080,31.146547 301.126190,31.293093 287.344452,31.307137 
	C283.878113,30.479795 281.151184,28.145172 278.800903,31.669575 
	C276.552185,31.683270 274.303497,31.696968 271.500366,31.339195 
	C269.654053,31.146297 268.362183,31.324871 267.070312,31.503447 
	C266.399475,31.188875 265.728638,30.874304 265.057800,30.559732 
	C265.099121,30.038893 265.140472,29.518053 265.181793,28.997213 
	C285.148315,28.997213 305.114838,28.997213 325.789154,28.998726 
	C326.664642,29.000160 326.832306,29.000080 327.000000,29.000000 
	C327.000000,29.444445 327.000000,29.888889 327.000000,30.666668 
z"/>
<path fill="#9BA27D" opacity="1.000000" stroke="none" 
	d="
M276.926910,37.728477 
	C293.312714,37.744339 309.698486,37.760197 326.542145,37.888031 
	C327.000000,38.444447 327.000000,38.888889 326.533508,39.616074 
	C306.045135,39.936268 286.023285,39.973721 266.001404,40.011169 
	C266.143646,39.248913 266.285889,38.486656 266.929077,38.091251 
	C270.595642,38.214897 273.761261,37.971687 276.926910,37.728477 
z"/>
<path fill="#E9EED2" opacity="1.000000" stroke="none" 
	d="
M266.304840,40.295097 
	C286.023285,39.973721 306.045135,39.936268 326.533508,39.949409 
	C327.000000,40.000000 327.000000,40.500000 327.000000,40.750000 
	C308.681000,40.990128 290.361938,40.991108 272.042999,40.953415 
	C270.231201,40.949684 268.419830,40.709473 266.304840,40.295097 
z"/>
<path fill="#EBFFFF" opacity="1.000000" stroke="none" 
	d="
M286.331635,24.384121 
	C299.368042,24.054260 312.716248,23.995047 326.532227,23.967916 
	C327.000000,24.000000 327.000000,24.500000 327.000000,24.750000 
	C313.547821,24.884922 300.095642,24.769844 286.331635,24.384121 
z"/>
<path fill="#B7D1D7" opacity="1.000000" stroke="none" 
	d="
M327.000000,21.750000 
	C314.947906,21.953016 302.895782,21.906033 290.381226,21.745491 
	C297.825684,21.421539 305.731903,21.175386 313.639893,21.015394 
	C317.779236,20.931648 321.921661,20.999186 326.531342,20.999201 
	C327.000000,21.000000 327.000000,21.500000 327.000000,21.750000 
z"/>
<path fill="#D5C5C4" opacity="1.000000" stroke="none" 
	d="
M327.000000,45.750000 
	C326.811066,45.969128 326.622101,45.938251 326.176086,45.778423 
	C326.057861,45.372009 326.272217,45.178028 326.781067,45.033760 
	C327.000000,45.000000 327.000000,45.500000 327.000000,45.750000 
z"/>
<path fill="#F1FFF9" opacity="1.000000" stroke="none" 
	d="
M327.000000,28.750000 
	C326.832306,29.000080 326.664642,29.000160 326.254517,28.933046 
	C326.132599,28.578426 326.323608,28.349922 326.792542,28.090170 
	C327.000000,28.000000 327.000000,28.500000 327.000000,28.750000 
z"/>
<path fill="#0E0E0E" opacity="1.000000" stroke="none" 
	d="
M106.873123,44.200714 
	C98.998657,44.383675 91.521767,44.655346 84.055313,44.480785 
	C79.358398,44.370975 77.916458,41.952003 79.226135,37.474949 
	C79.318565,37.158981 79.506226,36.871658 79.608147,36.557564 
	C84.862900,20.363401 83.498825,21.848436 100.353996,21.772419 
	C103.844086,21.756680 107.340355,21.690258 110.823372,21.860283 
	C116.053421,22.115591 117.510437,24.495150 115.700439,29.242395 
	C114.403847,32.643074 113.622520,36.279919 111.993851,39.499001 
	C111.055389,41.353889 108.888870,42.587452 106.873123,44.200714 
M99.970993,39.740280 
	C101.622810,35.144917 103.274628,30.549557 105.404663,24.623800 
	C101.149452,25.367018 96.465996,24.860668 95.268623,26.666191 
	C92.669060,30.586071 91.850342,35.686954 89.996315,41.222221 
	C93.951027,40.869770 96.696732,40.625069 99.970993,39.740280 
z"/>
<path fill="#0F0F0F" opacity="1.000000" stroke="none" 
	d="
M216.736069,44.618500 
	C210.774536,45.670235 207.502289,43.793869 207.034927,37.813606 
	C206.955963,36.803051 205.777939,35.878380 205.107697,34.914021 
	C204.241699,35.748714 203.041260,36.431789 202.579666,37.449852 
	C201.635620,39.532001 201.088593,41.794159 200.180771,44.589668 
	C198.329315,44.589668 196.223129,44.589672 194.116959,44.589672 
	C192.159683,44.589672 190.202408,44.589668 187.838211,44.589668 
	C190.551453,36.793850 193.117630,29.420614 195.764145,21.816549 
	C203.296906,21.816549 210.925827,21.596222 218.528168,21.949097 
	C220.847427,22.056749 225.139862,24.159088 225.042450,24.636307 
	C224.388138,27.841831 222.975662,30.954023 221.394150,33.871639 
	C220.916290,34.753212 219.125168,34.922932 217.546539,35.580891 
	C218.400162,38.280327 219.236893,40.926315 220.209976,44.003521 
	C219.213120,44.204971 218.192902,44.411148 216.736069,44.618500 
M210.203186,30.908163 
	C211.804993,29.596342 213.406784,28.284519 215.737076,26.376097 
	C207.237015,24.117355 206.470322,24.497761 205.037521,30.693382 
	C206.509964,30.772276 207.928284,30.848269 210.203186,30.908163 
z"/>
<path fill="#0E0E0E" opacity="1.000000" stroke="none" 
	d="
M157.863327,23.532537 
	C159.544479,22.817415 160.910538,21.993324 162.292892,21.965029 
	C169.447189,21.818586 176.609589,21.726231 183.761230,21.915569 
	C188.329834,22.036524 189.788223,24.494291 188.347916,28.877785 
	C187.830933,30.451206 187.190079,31.984520 186.690338,33.562916 
	C183.244904,44.444874 182.950043,44.666637 171.806747,44.611477 
	C166.812927,44.586758 161.811172,44.756058 156.827271,44.527061 
	C151.788162,44.295536 150.328293,42.052387 152.054825,37.414719 
	C153.762909,32.826626 155.712250,28.328346 157.863327,23.532537 
M167.557724,40.943047 
	C169.373291,40.309254 172.240845,40.169254 172.812439,38.951542 
	C174.730804,34.864647 175.830261,30.393364 177.256470,26.028507 
	C165.753342,23.824007 167.760345,24.800631 163.295517,40.603130 
	C164.453384,40.719433 165.575378,40.832130 167.557724,40.943047 
z"/>
<path fill="#101010" opacity="1.000000" stroke="none" 
	d="
M243.696869,28.936565 
	C246.322998,27.435728 248.479950,25.812580 250.871246,24.687504 
	C254.099716,23.168541 257.508362,22.032585 260.839691,20.732288 
	C261.131287,21.326702 261.422882,21.921114 261.714478,22.515528 
	C258.272369,24.723894 254.830276,26.932262 251.161697,29.285936 
	C253.366348,34.376637 255.447418,39.181927 257.528748,43.987812 
	C247.022079,45.951782 246.488174,45.696369 240.739975,35.000389 
	C238.916992,38.456890 237.481384,41.178902 235.788345,44.389008 
	C232.429886,44.389008 228.312103,44.389008 223.974884,44.389008 
	C226.569855,36.882660 229.131943,29.471413 231.745453,21.911396 
	C235.698654,21.911396 239.660156,21.911396 244.102783,21.911396 
	C243.165695,24.102844 242.305878,26.011715 241.606537,27.977680 
	C241.559753,28.109249 242.728622,28.673256 243.696869,28.936565 
z"/>
<path fill="#121212" opacity="1.000000" stroke="none" 
	d="
M12.524776,37.485493 
	C16.838343,32.338326 20.710915,27.261486 25.113237,22.695398 
	C26.225882,21.541367 29.027147,21.807114 31.056946,21.781870 
	C39.602699,21.675589 39.612530,21.723124 41.859035,29.880342 
	C43.163433,34.616695 44.432579,39.362755 45.787392,44.362030 
	C41.703812,44.362030 37.660297,44.362030 33.255733,44.362030 
	C33.895363,38.887917 30.776279,38.279991 26.327814,38.432625 
	C21.147837,38.610352 16.165262,38.049889 12.886597,43.604763 
	C12.160761,44.834511 8.800340,44.509239 6.083845,43.850479 
	C8.149297,41.815384 10.214749,39.780289 12.524776,37.485493 
M28.331892,35.155418 
	C34.511173,32.639683 27.936375,29.505680 28.383856,26.398495 
	C25.928104,29.044386 23.472353,31.690277 20.255116,35.156616 
	C23.526089,35.156616 25.485813,35.156616 28.331892,35.155418 
z"/>
<path fill="#0D0D0D" opacity="1.000000" stroke="none" 
	d="
M62.545952,44.599537 
	C59.804573,44.599583 57.492466,44.599583 54.598598,44.599583 
	C55.461514,40.977264 56.127239,37.779255 56.999332,34.638546 
	C57.824501,31.666803 58.866287,28.755209 59.932365,25.446037 
	C57.310917,25.327490 55.198250,25.231953 53.085579,25.136414 
	C52.873001,24.767143 52.660423,24.397873 52.447845,24.028603 
	C53.669994,23.277969 54.834484,22.394119 56.137436,21.830173 
	C56.840115,21.526037 57.779770,21.766331 58.612507,21.766239 
	C66.083252,21.765415 73.554001,21.765759 81.024750,21.765759 
	C81.260040,22.256922 81.495323,22.748083 81.730614,23.239246 
	C80.538651,23.912165 79.243271,25.293301 78.172394,25.136936 
	C73.205215,24.411646 70.884262,26.447506 69.923904,31.245419 
	C69.181580,34.954037 67.828979,38.581829 66.351036,42.077869 
	C65.878967,43.194550 64.136452,43.774151 62.545952,44.599537 
z"/>
<path fill="#EBEDF5" opacity="1.000000" stroke="none" 
	d="
M143.044144,32.517426 
	C143.068268,32.833324 143.065369,33.148972 142.602005,33.747528 
	C141.405167,34.988224 139.978149,35.956802 139.993851,36.901375 
	C140.059814,40.867062 140.512756,44.783741 134.488449,43.827728 
	C134.391464,43.812344 134.166565,44.603104 134.001358,45.017666 
	C132.826187,46.242500 131.733566,47.578056 130.391220,48.578613 
	C130.177917,48.737602 128.841217,47.389450 128.418640,46.364063 
	C128.681747,42.114670 128.580856,38.237213 128.316971,34.370876 
	C128.305237,34.198914 126.809830,34.128220 126.005508,34.010353 
	C125.981079,33.648354 125.956642,33.286358 126.225952,32.671562 
	C127.437599,31.954725 128.355499,31.490683 129.481293,30.789190 
	C129.559341,29.365208 129.429504,28.178675 129.264343,26.667553 
	C129.263382,25.909861 129.297745,25.476755 129.504883,24.938610 
	C129.854965,24.622456 129.973602,24.382345 130.425644,24.085320 
	C132.077988,25.792225 133.338226,27.527046 135.401794,30.367685 
	C135.860641,27.085833 136.080017,25.516733 136.284195,24.056347 
	C137.336121,24.056347 138.155914,24.056347 139.069397,24.259563 
	C139.299164,24.743298 139.508636,24.949085 139.829376,25.389977 
	C139.840912,26.114220 139.814606,26.528629 139.575165,27.182850 
	C139.490814,28.629313 139.619583,29.835962 139.929932,31.386702 
	C141.089035,31.993004 142.066589,32.255215 143.044144,32.517426 
z"/>
<path fill="#7C2E4F" opacity="1.000000" stroke="none" 
	d="
M143.213654,32.054462 
	C142.066589,32.255215 141.089035,31.993004 140.051971,30.988205 
	C139.924393,29.144756 139.856339,28.043898 139.788300,26.943039 
	C139.814606,26.528629 139.840912,26.114220 139.922363,25.181950 
	C139.643570,24.461508 139.309631,24.258928 138.975693,24.056347 
	C138.155914,24.056347 137.336121,24.056347 136.284195,24.056347 
	C136.080017,25.516733 135.860641,27.085833 135.401794,30.367685 
	C133.338226,27.527046 132.077988,25.792225 130.153442,24.051678 
	C129.436813,24.378519 129.384476,24.711086 129.332123,25.043652 
	C129.297745,25.476755 129.263382,25.909861 129.156189,27.060678 
	C129.146713,28.861141 129.210052,29.943890 129.273392,31.026638 
	C128.355499,31.490683 127.437599,31.954725 126.225067,32.399429 
	C125.863556,32.158958 125.796677,31.937822 125.787422,30.953871 
	C125.869049,27.792013 125.893051,25.392973 125.917046,22.993935 
	C127.312744,22.139164 128.708435,21.284395 130.104126,20.429625 
	C129.793320,20.345049 129.482513,20.260473 129.171707,20.175898 
	C129.764542,18.451391 130.357361,16.726887 131.109650,14.538520 
	C131.492050,17.738997 130.167374,21.344471 134.744202,21.462387 
	C135.491898,21.481649 136.288757,20.320612 137.024155,19.661844 
	C137.255875,19.454264 137.362823,19.106419 137.517990,18.817989 
	C137.524155,18.806505 137.438400,18.745567 137.395477,18.707672 
	C137.512070,18.823746 137.625443,18.943285 137.745743,19.055378 
	C140.575790,21.692337 144.996140,23.336334 143.568878,28.609848 
	C143.314011,29.551504 143.435471,30.595015 143.213654,32.054462 
z"/>
<path fill="#495A70" opacity="1.000000" stroke="none" 
	d="
M134.369476,45.018784 
	C134.166565,44.603104 134.391464,43.812344 134.488449,43.827728 
	C140.512756,44.783741 140.059814,40.867062 139.993851,36.901375 
	C139.978149,35.956802 141.405167,34.988224 142.587219,33.983997 
	C143.330383,38.142555 146.444107,43.004044 140.064651,45.651398 
	C139.492599,45.888786 139.630188,47.836197 139.322327,49.685661 
	C137.856094,48.193520 136.296829,46.606712 134.369476,45.018784 
z"/>
<path fill="#33455C" opacity="1.000000" stroke="none" 
	d="
M125.916809,34.452820 
	C126.809830,34.128220 128.305237,34.198914 128.316971,34.370876 
	C128.580856,38.237213 128.681747,42.114670 128.407898,45.989723 
	C124.279572,42.878960 126.079849,38.686035 125.916809,34.452820 
z"/>
<path fill="#E9EED2" opacity="1.000000" stroke="none" 
	d="
M276.627808,37.487255 
	C273.761261,37.971687 270.595642,38.214897 267.264008,38.070656 
	C270.174927,37.537483 273.251801,37.391758 276.627808,37.487255 
z"/>
<path fill="#B5CDC0" opacity="1.000000" stroke="none" 
	d="
M279.213806,31.789532 
	C281.151184,28.145172 283.878113,30.479795 286.897278,31.333458 
	C284.738831,31.631353 282.182739,31.770422 279.213806,31.789532 
z"/>
<path fill="#CEB7C9" opacity="1.000000" stroke="none" 
	d="
M125.629204,23.249468 
	C125.893051,25.392973 125.869049,27.792013 125.701859,30.618059 
	C125.486229,28.531712 125.413795,26.018356 125.629204,23.249468 
z"/>
<path fill="#B5CDC0" opacity="1.000000" stroke="none" 
	d="
M267.373444,31.671839 
	C268.362183,31.324871 269.654053,31.146297 271.082184,31.293657 
	C270.037811,31.693136 268.857208,31.766684 267.373444,31.671839 
z"/>
<path fill="#B7D1D7" opacity="1.000000" stroke="none" 
	d="
M271.816650,21.392366 
	C270.966431,21.649366 269.852783,21.732786 268.330627,21.706873 
	C269.132477,21.471291 270.342865,21.345037 271.816650,21.392366 
z"/>
<path fill="#EBFFFF" opacity="1.000000" stroke="none" 
	d="
M269.245850,24.364588 
	C270.082581,24.072399 271.140930,24.014322 272.590912,24.034412 
	C271.810852,24.274620 270.639191,24.436661 269.245850,24.364588 
z"/>
<path fill="#EBFFFF" opacity="1.000000" stroke="none" 
	d="
M266.112061,24.274033 
	C266.026672,24.127470 266.506287,24.051260 266.743591,24.102585 
	C266.719757,24.242804 266.458588,24.331701 266.112061,24.274033 
z"/>
<path fill="#EDEDED" opacity="1.000000" stroke="none" 
	d="
M99.706718,40.060326 
	C96.696732,40.625069 93.951027,40.869770 89.996315,41.222221 
	C91.850342,35.686954 92.669060,30.586071 95.268623,26.666191 
	C96.465996,24.860668 101.149452,25.367018 105.404663,24.623800 
	C103.274628,30.549557 101.622810,35.144917 99.706718,40.060326 
z"/>
<path fill="#DFDFDF" opacity="1.000000" stroke="none" 
	d="
M209.774902,30.916212 
	C207.928284,30.848269 206.509964,30.772276 205.037521,30.693382 
	C206.470322,24.497761 207.237015,24.117355 215.737076,26.376097 
	C213.406784,28.284519 211.804993,29.596342 209.774902,30.916212 
z"/>
<path fill="#EDEDED" opacity="1.000000" stroke="none" 
	d="
M167.127533,40.943935 
	C165.575378,40.832130 164.453384,40.719433 163.295517,40.603130 
	C167.760345,24.800631 165.753342,23.824007 177.256470,26.028507 
	C175.830261,30.393364 174.730804,34.864647 172.812439,38.951542 
	C172.240845,40.169254 169.373291,40.309254 167.127533,40.943935 
z"/>
<path fill="#DFDFDF" opacity="1.000000" stroke="none" 
	d="
M27.888714,35.156017 
	C25.485813,35.156616 23.526089,35.156616 20.255116,35.156616 
	C23.472353,31.690277 25.928104,29.044386 28.383856,26.398495 
	C27.936375,29.505680 34.511173,32.639683 27.888714,35.156017 
z"/>
<path fill="#D3ABC3" opacity="1.000000" stroke="none" 
	d="
M139.575165,27.182850 
	C139.856339,28.043898 139.924393,29.144756 139.870407,30.644112 
	C139.619583,29.835962 139.490814,28.629313 139.575165,27.182850 
z"/>
<path fill="#CEB7C9" opacity="1.000000" stroke="none" 
	d="
M129.481293,30.789188 
	C129.210052,29.943890 129.146713,28.861141 129.191528,27.385269 
	C129.429504,28.178675 129.559341,29.365208 129.481293,30.789188 
z"/>
<path fill="#D3ABC3" opacity="1.000000" stroke="none" 
	d="
M139.069397,24.259563 
	C139.309631,24.258928 139.643570,24.461508 139.884521,24.872116 
	C139.508636,24.949085 139.299164,24.743298 139.069397,24.259563 
z"/>
<path fill="#CEB7C9" opacity="1.000000" stroke="none" 
	d="
M129.504883,24.938610 
	C129.384476,24.711086 129.436813,24.378519 129.761353,24.079596 
	C129.973602,24.382345 129.854965,24.622456 129.504883,24.938610 
z"/>
</svg>