<svg version="1.1" id="Layer_1" xmlns="http://www.w3.org/2000/svg" xmlns:xlink="http://www.w3.org/1999/xlink" x="0px" y="0px"
	 width="100%" viewBox="0 0 88 62" enable-background="new 0 0 88 62" xml:space="preserve">
<path fill="#FFFFFF" opacity="1.000000" stroke="none" 
	d="
M66.000160,63.000000 
	C44.000118,63.000000 22.500130,63.000000 1.000106,63.000000 
	C1.000071,42.333393 1.000071,21.666782 1.000035,1.000131 
	C30.333260,1.000087 59.666519,1.000087 88.999832,1.000044 
	C88.999893,21.666582 88.999893,42.333164 88.999947,62.999870 
	C81.500069,63.000000 74.000145,63.000000 66.000160,63.000000 
M31.439976,16.434574 
	C26.626108,16.613670 21.812239,16.792767 16.337801,17.019857 
	C15.530890,17.376213 14.723978,17.732569 13.161729,18.057865 
	C10.859828,19.766571 10.772076,24.603611 12.999737,27.808395 
	C13.350242,29.848001 13.700747,31.887606 13.985653,34.696331 
	C13.991058,35.464016 13.996463,36.231705 13.510551,37.382519 
	C14.021278,38.964733 14.532005,40.546947 14.758854,42.802826 
	C14.689762,43.064976 14.579082,43.326012 14.572018,43.589821 
	C14.569187,43.695580 14.794633,43.903240 14.915586,43.902798 
	C21.271997,43.879620 27.628347,43.839077 34.916363,43.924492 
	C48.276051,43.883091 61.635742,43.841694 75.502098,43.864632 
	C75.611603,43.575577 75.721107,43.286518 75.979218,42.508457 
	C75.986008,42.338230 75.992805,42.168003 76.294632,41.337715 
	C77.170326,39.406021 78.396416,37.543530 78.796494,35.517895 
	C79.056046,34.203735 78.110168,32.651493 77.704399,31.205929 
	C76.420715,31.925741 75.137032,32.645554 73.141304,33.468410 
	C72.424950,33.416962 71.708603,33.365509 70.780403,32.599957 
	C70.521774,30.906824 70.263145,29.213692 70.830994,27.409492 
	C72.250931,26.931927 73.670876,26.454359 75.515091,26.020784 
	C75.515091,26.020784 75.940552,26.051140 76.418648,26.554983 
	C77.563705,25.847519 79.601334,25.224922 79.678253,24.415895 
	C79.871201,22.386703 79.391846,20.204077 78.754501,18.220375 
	C78.395340,17.102491 77.327515,15.699550 76.324532,15.450817 
	C75.390755,15.219249 74.119858,16.347034 72.063126,16.959311 
	C69.248413,16.968016 66.432289,16.922691 63.619251,16.995846 
	C56.054955,17.192566 48.491974,17.439892 40.044739,17.737101 
	C37.669964,17.723547 35.295193,17.709993 32.764820,17.321211 
	C32.545685,17.143791 32.295189,17.050900 31.439976,16.434574 
z"/>
<path fill="#FCFFFA" opacity="1.000000" stroke="none" 
	d="
M14.051252,33.927208 
	C13.700747,31.887606 13.350242,29.848001 13.295546,27.390169 
	C13.788473,26.959650 13.985590,26.947359 14.560799,27.006634 
	C15.945538,27.024071 16.952185,26.969940 17.984901,27.330526 
	C20.674788,31.292578 26.595303,30.979424 29.412174,27.101250 
	C31.221762,27.016245 32.617302,26.994091 34.461750,27.118441 
	C46.608612,27.350151 58.306564,27.435354 70.004517,27.520559 
	C70.263145,29.213692 70.521774,30.906824 70.485626,33.048756 
	C57.449612,33.637466 44.708374,33.777378 31.508814,33.852013 
	C26.731293,33.872307 22.412092,33.957886 17.688122,34.029907 
	C16.205984,33.986637 15.128618,33.956924 14.051252,33.927208 
z"/>
<path fill="#FFFEFA" opacity="1.000000" stroke="none" 
	d="
M73.853348,33.365364 
	C75.137032,32.645554 76.420715,31.925741 77.704399,31.205929 
	C78.110168,32.651493 79.056046,34.203735 78.796494,35.517895 
	C78.396416,37.543530 77.170326,39.406021 75.685562,41.578896 
	C60.734531,41.933987 46.392559,42.047901 31.583679,42.095848 
	C25.758757,42.062977 20.400743,42.096069 15.042732,42.129166 
	C14.532005,40.546947 14.021278,38.964733 14.222118,37.190956 
	C19.966568,36.731285 24.999451,36.463181 30.374304,36.131752 
	C31.167894,35.970146 31.619513,35.871864 32.462410,35.824936 
	C33.902279,35.946266 34.950863,36.016235 36.150887,36.298012 
	C36.868618,36.366970 37.434914,36.224129 38.450832,36.011818 
	C41.932026,35.985172 44.963593,36.027988 48.122822,36.284348 
	C48.480148,36.759804 48.767525,36.914631 49.573914,36.979843 
	C57.663918,36.998840 65.292778,37.027370 72.921227,36.984520 
	C75.054848,36.972538 77.463486,36.920959 74.674744,33.864014 
	C74.487740,33.862381 74.118477,33.921860 74.020020,33.798065 
	C73.921562,33.674271 73.853348,33.365364 73.853348,33.365364 
z"/>
<path fill="#FBFFFF" opacity="1.000000" stroke="none" 
	d="
M28.998123,27.164099 
	C26.595303,30.979424 20.674788,31.292578 17.862339,27.013485 
	C16.536709,26.499508 15.359708,26.717287 14.182708,26.935066 
	C13.985590,26.947359 13.788473,26.959650 13.295429,26.985935 
	C10.772076,24.603611 10.859828,19.766571 13.580065,18.480946 
	C15.592872,19.602913 17.180531,20.889849 18.782883,20.908413 
	C32.611683,21.068623 46.443283,21.030289 60.273571,20.958763 
	C61.847275,20.950626 63.418034,20.373674 65.323708,19.980942 
	C66.108177,19.954683 66.559097,20.007954 67.280991,20.332254 
	C70.038483,20.461720 72.524994,20.320152 75.295776,19.999826 
	C75.039810,19.235559 74.499596,18.650051 73.992508,18.032427 
	C74.025635,18.000311 74.044342,17.909943 73.924377,17.688974 
	C73.535408,17.270803 73.266388,17.073601 72.997375,16.876396 
	C74.119858,16.347034 75.390755,15.219249 76.324532,15.450817 
	C77.327515,15.699550 78.395340,17.102491 78.754501,18.220375 
	C79.391846,20.204077 79.871201,22.386703 79.678253,24.415895 
	C79.601334,25.224922 77.563705,25.847519 76.118103,25.903431 
	C72.178246,25.245316 68.538940,25.238754 64.438705,25.199488 
	C54.017338,25.204226 44.056900,25.241667 33.634377,25.165987 
	C28.535238,25.052868 23.898186,25.052868 19.261133,25.052868 
	C19.291468,25.756611 19.321800,26.460356 19.352135,27.164099 
	C22.567463,27.164099 25.782793,27.164099 28.998123,27.164099 
z"/>
<path fill="#6E5A5C" opacity="1.000000" stroke="none" 
	d="
M32.050591,42.161816 
	C46.392559,42.047901 60.734531,41.933987 75.538055,41.908920 
	C75.992805,42.168003 75.986008,42.338230 75.728294,42.844173 
	C75.252975,43.337170 75.092331,43.543968 74.995430,43.800293 
	C61.635742,43.841694 48.276051,43.883091 34.289692,43.659668 
	C33.125546,42.983833 32.588066,42.572823 32.050591,42.161816 
z"/>
<path fill="#4C727C" opacity="1.000000" stroke="none" 
	d="
M67.010017,20.061222 
	C66.559097,20.007954 66.108177,19.954683 64.863556,19.887568 
	C53.745579,19.820559 43.421291,19.767395 33.090416,19.449120 
	C33.082775,18.831112 33.081726,18.478216 33.093475,17.998346 
	C33.106274,17.871374 32.920418,17.696440 32.920418,17.696440 
	C35.295193,17.709993 37.669964,17.723547 40.945999,17.828520 
	C52.579617,17.916607 63.311981,17.913275 74.044342,17.909943 
	C74.044342,17.909943 74.025635,18.000311 73.994736,18.308434 
	C73.946465,18.984091 73.929085,19.351624 73.482162,19.763403 
	C71.038422,19.892172 69.024223,19.976698 67.010017,20.061222 
z"/>
<path fill="#628C72" opacity="1.000000" stroke="none" 
	d="
M34.096466,25.279106 
	C44.056900,25.241667 54.017338,25.204226 64.728378,25.500462 
	C68.682922,25.881691 71.886864,25.929241 75.090813,25.976791 
	C73.670876,26.454359 72.250931,26.931927 70.417755,27.465027 
	C58.306564,27.435354 46.608612,27.350151 34.467258,26.835861 
	C34.048058,26.030888 34.072262,25.654997 34.096466,25.279106 
z"/>
<path fill="#8C926C" opacity="1.000000" stroke="none" 
	d="
M73.497330,33.416885 
	C73.853348,33.365364 73.921562,33.674271 73.972824,34.064758 
	C74.019127,34.635429 74.014168,34.815613 73.539978,34.996834 
	C70.254982,34.998150 67.434616,34.895622 64.624420,35.020977 
	C59.416260,35.253304 54.214039,35.618839 48.749863,35.921925 
	C48.325302,35.966908 48.160233,36.018860 47.995163,36.070808 
	C44.963593,36.027988 41.932026,35.985172 38.120152,35.932281 
	C36.893047,35.976879 36.446251,36.031544 35.999451,36.086208 
	C34.950863,36.016235 33.902279,35.946266 32.446365,35.515942 
	C32.015068,34.742825 31.991102,34.330055 31.967136,33.917290 
	C44.708374,33.777378 57.449612,33.637466 70.591553,33.405807 
	C71.708603,33.365509 72.424950,33.416962 73.497330,33.416885 
z"/>
<path fill="#EBFEFF" opacity="1.000000" stroke="none" 
	d="
M33.097008,19.714231 
	C43.421291,19.767395 53.745579,19.820559 64.530014,19.967098 
	C63.418034,20.373674 61.847275,20.950626 60.273571,20.958763 
	C46.443283,21.030289 32.611683,21.068623 18.782883,20.908413 
	C17.180531,20.889849 15.592872,19.602913 13.957734,18.496475 
	C14.723978,17.732569 15.530890,17.376213 16.792927,17.234055 
	C17.538885,17.649609 17.829718,17.850964 18.123873,18.470842 
	C23.117132,19.164320 28.107071,19.439276 33.097008,19.714231 
z"/>
<path fill="#786E6F" opacity="1.000000" stroke="none" 
	d="
M31.583679,42.095848 
	C32.588066,42.572823 33.125546,42.983833 33.823860,43.597595 
	C27.628347,43.839077 21.271997,43.879620 14.915586,43.902798 
	C14.794633,43.903240 14.569187,43.695580 14.572018,43.589821 
	C14.579082,43.326012 14.689762,43.064976 14.900793,42.465996 
	C20.400743,42.096069 25.758757,42.062977 31.583679,42.095848 
z"/>
<path fill="#B4D3DD" opacity="1.000000" stroke="none" 
	d="
M73.924377,17.688974 
	C63.311981,17.913275 52.579617,17.916607 41.387863,17.793533 
	C48.491974,17.439892 56.054955,17.192566 63.619251,16.995846 
	C66.432289,16.922691 69.248413,16.968016 72.530251,16.917854 
	C73.266388,17.073601 73.535408,17.270803 73.924377,17.688974 
z"/>
<path fill="#F6FFFF" opacity="1.000000" stroke="none" 
	d="
M18.120550,18.052320 
	C17.829718,17.850964 17.538885,17.649609 17.123211,17.210056 
	C21.812239,16.792767 26.626108,16.613670 31.707966,16.944828 
	C31.975954,17.455080 31.915752,17.865593 31.460426,17.918125 
	C26.710251,17.997877 22.415400,18.025099 18.120550,18.052320 
z"/>
<path fill="#FAFEE5" opacity="1.000000" stroke="none" 
	d="
M30.032333,36.195072 
	C24.999451,36.463181 19.966568,36.731285 14.467777,36.999390 
	C13.996463,36.231705 13.991058,35.464016 14.018453,34.311768 
	C15.128618,33.956924 16.205984,33.986637 17.706886,34.442013 
	C22.097727,35.310139 26.065029,35.752605 30.032333,36.195072 
z"/>
<path fill="#F0FFFB" opacity="1.000000" stroke="none" 
	d="
M75.302948,25.998787 
	C71.886864,25.929241 68.682922,25.881691 65.189301,25.533165 
	C68.538940,25.238754 72.178246,25.245316 75.879059,25.651508 
	C75.940552,26.051140 75.515091,26.020784 75.302948,25.998787 
z"/>
<path fill="#B4D3DD" opacity="1.000000" stroke="none" 
	d="
M31.915752,17.865593 
	C31.915752,17.865593 31.975954,17.455080 31.994648,17.248806 
	C32.295189,17.050900 32.545685,17.143791 32.842621,17.508825 
	C32.920418,17.696440 33.106274,17.871374 32.802216,17.933054 
	C32.304028,17.951689 32.109890,17.908642 31.915752,17.865593 
z"/>
<path fill="#786E6F" opacity="1.000000" stroke="none" 
	d="
M75.248764,43.832462 
	C75.092331,43.543968 75.252975,43.337170 75.653992,43.088676 
	C75.721107,43.286518 75.611603,43.575577 75.248764,43.832462 
z"/>
<path fill="#88AE99" opacity="1.000000" stroke="none" 
	d="
M33.634377,25.165987 
	C34.072262,25.654997 34.048058,26.030888 34.018349,26.689358 
	C32.617302,26.994091 31.221762,27.016245 29.412174,27.101250 
	C25.782793,27.164099 22.567463,27.164099 19.352135,27.164099 
	C19.321800,26.460356 19.291468,25.756611 19.261133,25.052868 
	C23.898186,25.052868 28.535238,25.052868 33.634377,25.165987 
z"/>
<path fill="#A7AF8B" opacity="1.000000" stroke="none" 
	d="
M30.374304,36.131752 
	C26.065029,35.752605 22.097727,35.310139 18.111658,34.455570 
	C22.412092,33.957886 26.731293,33.872307 31.508814,33.852013 
	C31.991102,34.330055 32.015068,34.742825 32.055084,35.464584 
	C31.619513,35.871864 31.167894,35.970146 30.374304,36.131752 
z"/>
<path fill="#5E796C" opacity="1.000000" stroke="none" 
	d="
M14.560799,27.006634 
	C15.359708,26.717287 16.536709,26.499508 17.836269,26.598770 
	C16.952185,26.969940 15.945538,27.024071 14.560799,27.006634 
z"/>
<path fill="#A9B08F" opacity="1.000000" stroke="none" 
	d="
M49.009346,35.928902 
	C54.214039,35.618839 59.416260,35.253304 64.624420,35.020977 
	C67.434616,34.895622 70.254982,34.998150 73.772720,34.888290 
	C74.603714,34.474358 74.732735,34.170002 74.861748,33.865643 
	C77.463486,36.920959 75.054848,36.972538 72.921227,36.984520 
	C65.292778,37.027370 57.663918,36.998840 49.529137,36.723366 
	C49.018486,36.275917 49.013916,36.102409 49.009346,35.928902 
z"/>
<path fill="#FAFEE5" opacity="1.000000" stroke="none" 
	d="
M36.150887,36.298012 
	C36.446251,36.031544 36.893047,35.976879 37.670528,36.001751 
	C37.434914,36.224129 36.868618,36.366970 36.150887,36.298012 
z"/>
<path fill="#D7DCBE" opacity="1.000000" stroke="none" 
	d="
M74.674744,33.864014 
	C74.732735,34.170002 74.603714,34.474358 74.241943,34.887257 
	C74.014168,34.815613 74.019127,34.635429 74.071289,34.188553 
	C74.118477,33.921860 74.487740,33.862381 74.674744,33.864014 
z"/>
<path fill="#FAFEE5" opacity="1.000000" stroke="none" 
	d="
M48.749863,35.921928 
	C49.013916,36.102409 49.018486,36.275917 49.067833,36.705898 
	C48.767525,36.914631 48.480148,36.759804 48.122822,36.284351 
	C48.160233,36.018860 48.325302,35.966908 48.749863,35.921928 
z"/>
<path fill="#EBFEFF" opacity="1.000000" stroke="none" 
	d="
M67.280991,20.332256 
	C69.024223,19.976698 71.038422,19.892172 73.750900,19.893213 
	C74.636627,20.045382 74.824066,20.111982 75.011513,20.178585 
	C72.524994,20.320152 70.038483,20.461720 67.280991,20.332256 
z"/>
<path fill="#79989D" opacity="1.000000" stroke="none" 
	d="
M75.295776,19.999826 
	C74.824066,20.111982 74.636627,20.045382 74.180443,19.848969 
	C73.929085,19.351624 73.946465,18.984091 73.961609,18.340549 
	C74.499596,18.650051 75.039810,19.235559 75.295776,19.999826 
z"/>
<path fill="#79989D" opacity="1.000000" stroke="none" 
	d="
M31.460426,17.918125 
	C32.109890,17.908642 32.304028,17.951689 32.789421,18.060026 
	C33.081726,18.478216 33.082775,18.831112 33.090416,19.449120 
	C28.107071,19.439276 23.117132,19.164320 18.123873,18.470842 
	C22.415400,18.025099 26.710251,17.997877 31.460426,17.918125 
z"/>
</svg>